# File produced by Open Asset Import Library (http://www.assimp.sf.net)
# (assimp v3.1.128981410)

mtllib pan.mtl

# vertex positions
v 568.378784 619.035583 253.116714
v -479.436432 537.851501 253.116745
v -479.436432 523.633118 303.740143
v 568.378784 604.817200 303.740143
v 568.378784 604.817078 -303.740326
v -479.436432 523.632996 -303.740326
v -479.436432 537.851379 -253.116913
v 568.378784 619.035461 -253.116943
v -479.436432 523.632996 -202.493561
v 568.378784 604.817078 -202.493576
v -479.436432 537.851440 -151.870209
v 568.378784 619.035522 -151.870239
v -479.436432 523.633057 -101.246819
v 568.378784 604.817139 -101.246849
v -479.436432 537.851440 -50.623455
v 568.378784 619.035522 -50.623478
v -479.436432 523.633057 -0.000081
v 568.378784 604.817139 -0.000103
v -479.436432 537.851440 50.623291
v 568.378784 619.035522 50.623268
v -479.436432 523.633057 101.246666
v 568.378784 604.817139 101.246635
v -479.436432 537.851440 151.870041
v 568.378784 619.035522 151.870010
v -479.436432 523.633118 202.493393
v 568.378784 604.817200 202.493378
v 568.752563 615.748169 253.116714
v 568.739502 601.645020 302.897339
v -479.075775 520.460938 302.897339
v -479.062653 534.564087 253.116745
v 568.739502 601.644897 -302.897522
v 568.752563 615.748047 -253.116943
v -479.062653 534.563965 -253.116913
v -479.075775 520.460815 -302.897522
v 568.752563 601.529663 -202.493576
v -479.062653 520.345581 -202.493561
v 568.752563 615.748108 -151.870239
v -479.062653 534.564026 -151.870209
v 568.752563 601.529724 -101.246849
v -479.062653 520.345642 -101.246819
v 568.752563 615.748108 -50.623478
v -479.062653 534.564026 -50.623455
v 568.752563 601.529724 -0.000102
v -479.062653 520.345642 -0.000080
v 568.752563 615.748108 50.623268
v -479.062653 534.564026 50.623291
v 568.752563 601.529724 101.246635
v -479.062653 520.345642 101.246666
v 568.752563 615.748108 151.870010
v -479.062653 534.564026 151.870041
v 568.752563 601.529785 202.493378
v -479.062653 520.345703 202.493393
v 346.534393 472.986755 278.056061
v 346.534393 587.928467 278.056061
v -442.972992 526.471619 278.056061
v -442.972992 424.387878 278.056061
v -442.972992 424.387756 -239.506912
v -442.972992 526.471497 -239.506927
v -442.972992 526.471497 -278.056244
v -442.972992 424.387756 -278.056213
v -442.972992 -42.229950 242.359741
v 346.534393 -42.229950 242.359741
v 346.534393 -42.229950 278.056122
v -442.972992 -42.229950 278.056122
v 346.534393 587.928467 242.359650
v 442.458099 587.928467 278.056061
v 442.458099 587.928467 242.359650
v 346.534393 587.928345 -278.056244
v 346.534393 472.986694 -278.056244
v 346.534393 464.855713 -278.056213
v -442.972992 416.754272 -278.056213
v -447.772308 416.417053 -283.126984
v 346.606262 465.395691 -283.126984
v 346.534393 434.477356 242.359665
v 346.534393 470.099915 242.359665
v 346.534393 464.855774 278.056061
v -447.772308 424.137115 -283.126984
v -447.772308 424.137146 -243.874680
v 346.606262 473.622314 -283.127014
v 558.391479 609.257141 -282.670105
v 567.890259 609.687439 -281.614258
v 346.534393 -31.753387 278.056122
v -442.972992 416.754303 278.056061
v -442.972992 -32.747177 278.056122
v -442.972992 -32.747269 -239.506821
v -442.972992 416.754272 -239.506897
v -442.972992 -32.747269 -278.056152
v 346.534393 -32.381027 242.359741
v 346.534393 -31.753479 -278.056152
v -447.772308 416.417053 -243.874664
v 346.606262 465.395813 283.126862
v 346.606262 473.622437 283.126831
v -447.772308 424.137268 283.126862
v -447.772308 416.417145 283.126862
v -442.972992 416.754303 242.359680
v -447.772308 416.417114 246.779495
v 568.619507 609.436646 275.826324
v 564.763428 609.800476 280.897095
v 558.876587 608.840027 -277.599304
v 568.296265 609.324158 -276.543457
v 563.091797 611.683167 274.368591
v 560.128662 610.712708 280.003540
v 442.458099 470.099915 242.359665
v 442.458099 470.099915 278.056061
v 442.458099 587.928345 -278.056244
v 442.458099 470.099854 -278.056244
v 346.534393 470.099854 -239.506912
v 442.458099 470.099854 -239.506912
v 442.458099 587.928345 -239.506927
v -447.772308 424.137268 246.779480
v -442.972992 -32.747192 242.359741
v -442.972992 424.387878 242.359665
v 346.534393 434.477295 -239.506912
v 346.534393 587.928345 -239.506927
v -442.972992 -42.230042 -239.506821
v 346.534393 -42.230042 -239.511292
v -442.972992 526.471619 242.359650
v -442.972992 -42.230042 -278.056152
v 346.534393 -42.230042 -278.056152
v 346.534393 -32.381104 -239.515793
v 338.550323 -32.381104 -240.475220
v 338.550323 434.477295 -240.470795
v 338.550323 434.477356 241.214905
v 338.550323 -32.381027 241.214981
v 293.210571 -209.429916 266.167206
v 293.210571 -36.397552 266.167145
v 293.210571 -36.397552 230.904236
v 293.210571 -209.429947 230.904266
v 328.473511 -36.397552 230.904236
v 328.473511 -209.429947 230.904266
v 328.473511 -36.397552 266.167145
v 328.473511 -209.429916 266.167206
v 293.210571 -209.430008 -230.340469
v 293.210571 -36.397614 -230.340500
v 293.210571 -36.397614 -265.603394
v 293.210571 -209.430008 -265.603363
v 328.473511 -36.397614 -265.603394
v 328.473511 -209.430008 -265.603363
v 328.473511 -36.397614 -230.340500
v 328.473511 -209.430008 -230.340469
v -435.433563 -209.429916 266.167206
v -435.433563 -36.397552 266.167145
v -435.433563 -36.397552 230.904236
v -435.433563 -209.429947 230.904266
v -400.170654 -36.397552 230.904236
v -400.170654 -209.429947 230.904266
v -400.170654 -36.397552 266.167145
v -400.170654 -209.429916 266.167206
v -435.433563 -209.430008 -230.340469
v -435.433563 -36.397614 -230.340500
v -435.433563 -36.397614 -265.603394
v -435.433563 -209.430008 -265.603363
v -400.170654 -36.397614 -265.603394
v -400.170654 -209.430008 -265.603363
v -400.170654 -36.397614 -230.340500
v -400.170654 -209.430008 -230.340469

# UV coordinates
vt 0.023653 0.001091
vt 0.023653 0.378009
vt 0.000977 0.378349
vt 0.000977 0.001431
vt 0.272169 0.001294
vt 0.272169 0.378213
vt 0.249647 0.377895
vt 0.249647 0.000977
vt 0.226970 0.378235
vt 0.226970 0.001317
vt 0.204448 0.377918
vt 0.204448 0.001000
vt 0.181772 0.378258
vt 0.181772 0.001340
vt 0.159249 0.377941
vt 0.159249 0.001022
vt 0.136573 0.378281
vt 0.136573 0.001362
vt 0.114050 0.377964
vt 0.114050 0.001045
vt 0.091374 0.378304
vt 0.091374 0.001385
vt 0.068852 0.377986
vt 0.068852 0.001068
vt 0.046175 0.378327
vt 0.046175 0.001408
vt 0.523357 0.000977
vt 0.545578 0.001358
vt 0.545578 0.378336
vt 0.523357 0.377955
vt 0.275155 0.001359
vt 0.297377 0.000978
vt 0.297377 0.377956
vt 0.275155 0.378337
vt 0.319974 0.001357
vt 0.319974 0.378336
vt 0.342573 0.000977
vt 0.342573 0.377956
vt 0.365170 0.001357
vt 0.365170 0.378335
vt 0.387769 0.000977
vt 0.387769 0.377956
vt 0.410366 0.001357
vt 0.410366 0.378335
vt 0.432965 0.000977
vt 0.432965 0.377956
vt 0.455562 0.001357
vt 0.455562 0.378335
vt 0.478161 0.000977
vt 0.478161 0.377955
vt 0.500758 0.001356
vt 0.500758 0.378335
vt 0.378267 0.382733
vt 0.001568 0.382733
vt 0.001561 0.381349
vt 0.378260 0.381349
vt 0.379366 0.403789
vt 0.385429 0.381578
vt 0.386787 0.381948
vt 0.380773 0.403789
vt 0.383940 0.403853
vt 0.390002 0.381642
vt 0.391360 0.382011
vt 0.385347 0.403853
vt 0.376251 0.387108
vt 0.000992 0.387108
vt 0.000984 0.385718
vt 0.376244 0.385718
vt 0.385429 0.648110
vt 0.379366 0.625899
vt 0.380773 0.625899
vt 0.386787 0.647741
vt 0.385429 0.603688
vt 0.386836 0.603688
vt 0.379366 0.581477
vt 0.380773 0.581477
vt 0.385429 0.559266
vt 0.386836 0.559266
vt 0.379366 0.537055
vt 0.380773 0.537055
vt 0.385429 0.514844
vt 0.386836 0.514844
vt 0.379366 0.492633
vt 0.380773 0.492633
vt 0.385429 0.470422
vt 0.386836 0.470422
vt 0.379366 0.448211
vt 0.380773 0.448211
vt 0.385429 0.426000
vt 0.386836 0.426000
vt 0.390002 0.648171
vt 0.383940 0.625961
vt 0.385347 0.625961
vt 0.391360 0.647802
vt 0.390002 0.603750
vt 0.391409 0.603750
vt 0.383940 0.581539
vt 0.385347 0.581539
vt 0.390002 0.559328
vt 0.391409 0.559328
vt 0.383940 0.537117
vt 0.385347 0.537117
vt 0.390002 0.514907
vt 0.391409 0.514907
vt 0.383940 0.492696
vt 0.385347 0.492696
vt 0.390002 0.470485
vt 0.391409 0.470485
vt 0.383940 0.448274
vt 0.385347 0.448274
vt 0.390002 0.426063
vt 0.391409 0.426063
vt 0.087259 0.506679
vt 0.084207 0.457765
vt 0.363138 0.466573
vt 0.365849 0.510015
vt 0.272699 0.671233
vt 0.229193 0.671233
vt 0.229193 0.654327
vt 0.272699 0.654327
vt 0.331902 0.882547
vt 0.609499 0.882547
vt 0.609499 0.898210
vt 0.331902 0.898210
vt 0.290060 0.669908
vt 0.290060 0.654250
vt 0.323797 0.654227
vt 0.323797 0.669886
vt 0.039108 0.455318
vt 0.041862 0.411887
vt 0.320875 0.403082
vt 0.317774 0.451983
vt 0.287713 0.392367
vt 0.002710 0.392367
vt 0.000977 0.390093
vt 0.287753 0.390093
vt 0.628140 0.868707
vt 0.628140 0.883889
vt 0.612486 0.885119
vt 0.612486 0.881654
vt 0.374278 0.417278
vt 0.374252 0.400027
vt 0.375976 0.397756
vt 0.376003 0.415321
vt 0.522148 0.561301
vt 0.525573 0.562067
vt 0.565810 0.647513
vt 0.565243 0.650827
vt 0.797935 0.286138
vt 0.586763 0.301694
vt 0.586763 0.023100
vt 0.777903 0.009019
vt 0.979934 0.306847
vt 0.788364 0.306847
vt 0.788364 0.289942
vt 0.979934 0.289942
vt 0.628140 0.669741
vt 0.612486 0.670008
vt 0.759941 0.662150
vt 0.568853 0.647879
vt 0.568853 0.369208
vt 0.779967 0.384975
vt 0.562596 0.283635
vt 0.565810 0.284354
vt 0.004267 0.666586
vt 0.000977 0.666586
vt 0.000977 0.649372
vt 0.004267 0.649372
vt 0.548615 0.089449
vt 0.552042 0.088681
vt 0.592682 0.366428
vt 0.589466 0.367149
vt 0.089856 0.400389
vt 0.089812 0.398116
vt 0.002711 0.625747
vt 0.002711 0.641755
vt 0.000977 0.644029
vt 0.000977 0.627729
vt 0.287754 0.644029
vt 0.287713 0.641755
vt 0.371397 0.640762
vt 0.370021 0.643036
vt 0.090239 0.649249
vt 0.374634 0.648888
vt 0.376365 0.651155
vt 0.090202 0.651515
vt 0.010521 0.400027
vt 0.007131 0.400505
vt 0.007265 0.398233
vt 0.010682 0.397756
vt 0.007392 0.647690
vt 0.009322 0.647021
vt 0.010412 0.649546
vt 0.008770 0.649954
vt 0.031809 0.456911
vt 0.034552 0.459077
vt 0.033810 0.556391
vt 0.031809 0.557332
vt 0.591946 0.000978
vt 0.592682 0.002494
vt 0.371142 0.390778
vt 0.371278 0.393052
vt 0.039020 0.460691
vt 0.041757 0.458532
vt 0.041757 0.558501
vt 0.039852 0.555748
vt 0.444905 0.396975
vt 0.394689 0.396975
vt 0.394689 0.381321
vt 0.444905 0.381321
vt 0.053644 0.510015
vt 0.050515 0.459873
vt 0.354573 0.405189
vt 0.351394 0.455318
vt 0.007252 0.670274
vt 0.007328 0.653356
vt 0.040986 0.653356
vt 0.040986 0.670274
vt 0.007328 0.897416
vt 0.007252 0.881750
vt 0.040986 0.881749
vt 0.040986 0.897415
vt 0.444905 0.608294
vt 0.394689 0.608294
vt 0.002710 0.409654
vt 0.000977 0.407696
vt 0.004267 0.897699
vt 0.000977 0.897699
vt 0.000977 0.881759
vt 0.004267 0.881759
vt 0.979934 0.533820
vt 0.788364 0.533820
vt 0.788364 0.518166
vt 0.979934 0.518166
vt 0.374609 0.632914
vt 0.376340 0.634889
vt 0.839459 0.868707
vt 0.839459 0.883889
vt 0.290060 0.881284
vt 0.323797 0.881262
vt 0.331903 0.671113
vt 0.609501 0.671111
vt 0.272699 0.898206
vt 0.229193 0.898206
vt 0.229193 0.882551
vt 0.272699 0.882551
vt 0.331904 0.654198
vt 0.609501 0.654198
vt 0.290060 0.898194
vt 0.323797 0.898172
vt 0.856364 0.881654
vt 0.856364 0.885119
vt 0.856364 0.670008
vt 0.839463 0.669741
vt 0.444905 0.625199
vt 0.394689 0.625199
vt 0.800057 0.000977
vt 0.999023 0.000979
vt 0.999023 0.212218
vt 0.800057 0.212218
vt 0.011391 0.404175
vt 0.011391 0.615609
vt 0.008584 0.615107
vt 0.008584 0.403752
vt 0.017185 0.614598
vt 0.014377 0.615102
vt 0.014377 0.403722
vt 0.017185 0.403300
vt 0.028824 0.403109
vt 0.028824 0.603005
vt 0.025994 0.603002
vt 0.025995 0.403106
vt 0.020170 0.603200
vt 0.020170 0.403074
vt 0.023009 0.403089
vt 0.023009 0.603215
vt 0.983975 0.518166
vt 0.983975 0.306847
vt 0.856364 0.665543
vt 0.839461 0.665543
vt 0.983975 0.533820
vt 0.763972 0.662451
vt 0.784421 0.385308
vt 0.628140 0.665543
vt 0.612486 0.665543
vt 0.983975 0.289942
vt 0.802390 0.285809
vt 0.781936 0.008722
vt 0.107720 0.654500
vt 0.107720 0.728243
vt 0.092256 0.728243
vt 0.092256 0.654500
vt 0.065719 0.728107
vt 0.065719 0.654344
vt 0.078131 0.654333
vt 0.078131 0.728096
vt 0.098170 0.731228
vt 0.098170 0.804972
vt 0.082705 0.804972
vt 0.082705 0.731228
vt 0.035159 0.635524
vt 0.035159 0.561747
vt 0.047569 0.561745
vt 0.047569 0.635523
vt 0.116619 0.731228
vt 0.116619 0.804972
vt 0.101155 0.804972
vt 0.101155 0.731228
vt 0.065633 0.881055
vt 0.065633 0.807292
vt 0.078045 0.807281
vt 0.078045 0.881044
vt 0.126364 0.510656
vt 0.126364 0.584399
vt 0.110900 0.584399
vt 0.110900 0.510656
vt 0.043972 0.727548
vt 0.043972 0.653771
vt 0.056381 0.653769
vt 0.056381 0.727546
vt 0.107914 0.509973
vt 0.107914 0.583716
vt 0.092450 0.583716
vt 0.092450 0.509973
vt 0.077053 0.584594
vt 0.077053 0.510831
vt 0.089465 0.510820
vt 0.089465 0.584583
vt 0.126745 0.654476
vt 0.126745 0.728219
vt 0.111281 0.728219
vt 0.111281 0.654476
vt 0.050324 0.804310
vt 0.050324 0.730533
vt 0.062734 0.730531
vt 0.062734 0.804308
vt 0.098182 0.807957
vt 0.098182 0.881700
vt 0.082718 0.881700
vt 0.082718 0.807957
vt 0.058932 0.807295
vt 0.058932 0.881058
vt 0.046520 0.881069
vt 0.046520 0.807306
vt 0.116632 0.807957
vt 0.116632 0.881700
vt 0.101167 0.881700
vt 0.101167 0.807957
vt 0.058034 0.586497
vt 0.058034 0.512720
vt 0.070443 0.512718
vt 0.070443 0.586495

# vertex normals
vn -0.074386 0.960080 0.269653
vn -0.074386 0.960080 -0.269654
vn -0.074386 0.960080 0.269654
vn -0.074386 0.960080 -0.269654
vn -0.074386 0.960080 0.269654
vn -0.074386 0.960080 -0.269654
vn -0.074386 0.960080 0.269654
vn -0.074386 0.960080 -0.269654
vn -0.074386 0.960080 0.269654
vn -0.074386 0.960080 -0.269654
vn 0.074340 -0.959476 -0.271806
vn 0.074340 -0.959476 0.271806
vn 0.074386 -0.960080 -0.269654
vn 0.074386 -0.960080 0.269654
vn 0.074386 -0.960080 -0.269654
vn 0.074386 -0.960080 0.269654
vn 0.074386 -0.960080 -0.269654
vn 0.074386 -0.960080 0.269654
vn 0.074386 -0.960080 -0.269654
vn 0.074386 -0.960080 0.269654
vn 0.019728 -0.254628 0.966838
vn 0.993569 0.108943 0.030859
vn -0.993569 -0.108944 0.030856
vn 0.019728 -0.254629 -0.966838
vn 0.993569 0.108943 -0.030856
vn 0.993098 0.112918 0.031715
vn 0.993098 0.112918 -0.031718
vn 0.993098 0.112918 -0.031718
vn 0.993098 0.112918 0.031715
vn -0.993569 -0.108944 -0.030853
vn -0.993098 -0.112918 0.031712
vn -0.993098 -0.112918 -0.031712
vn -0.993098 -0.112916 -0.031712
vn -0.993098 -0.112916 0.031712
vn 0.000000 0.000000 1.000000
vn -1.000000 0.000000 0.000000
vn 0.000000 -1.000000 0.000000
vn 0.000000 1.000000 -0.000000
vn 0.000000 -0.000000 -1.000000
vn 0.061106 -0.996956 -0.048419
vn 1.000000 0.000000 0.000000
vn -0.052147 0.998639 -0.000000
vn 0.051313 -0.072377 -0.996056
vn -0.061671 0.995875 0.066557
vn 0.070083 -0.997541 0.000000
vn 0.530356 -0.803788 0.269531
vn -0.061671 0.995875 -0.066557
vn 0.061106 -0.996956 0.048420
vn -0.057201 0.995023 0.081588
vn 0.245558 0.946355 0.210030
vn 0.057024 -0.109028 -0.992402
vn -0.536090 0.837128 0.108741
vn -0.038449 0.077908 0.996219
vn 0.544143 -0.833911 -0.092197
vn -0.537297 0.834956 -0.118995
vn -0.051975 0.073490 0.995941
vn -0.015036 -0.999187 -0.037413
vn -0.015034 -0.999071 0.040398
vn 0.070084 -0.997541 0.000000
vn -0.052153 0.998639 -0.000000
vn -0.000000 -1.000000 0.000000
vn -0.000000 -1.000000 0.000000
vn 0.070089 -0.997541 0.000000
vn -0.052144 0.998640 -0.000000
vn -0.000000 1.000000 -0.000000
vn -0.119582 -0.000014 0.992824
vn 0.141927 -0.000000 -0.989877

# Mesh
g Cube.005
usemtl Material
f 4/4/1 1/1/1 2/2/1
f 2/2/1 3/3/1 4/4/1
f 8/8/2 5/5/2 6/6/2
f 6/6/2 7/7/2 8/8/2
f 10/10/3 8/8/3 7/7/3
f 7/7/3 9/9/3 10/10/3
f 12/12/4 10/10/4 9/9/4
f 9/9/4 11/11/4 12/12/4
f 14/14/5 12/12/5 11/11/5
f 11/11/5 13/13/5 14/14/5
f 16/16/6 14/14/6 13/13/6
f 13/13/6 15/15/6 16/16/6
f 18/18/7 16/16/7 15/15/7
f 15/15/7 17/17/7 18/18/7
f 20/20/8 18/18/8 17/17/8
f 17/17/8 19/19/8 20/20/8
f 22/22/9 20/20/9 19/19/9
f 19/19/9 21/21/9 22/22/9
f 24/24/10 22/22/10 21/21/10
f 21/21/10 23/23/10 24/24/10
f 26/26/3 24/24/3 23/23/3
f 23/23/3 25/25/3 26/26/3
f 1/1/4 26/26/4 25/25/4
f 25/25/4 2/2/4 1/1/4
f 30/30/11 27/27/11 28/28/11
f 28/28/11 29/29/11 30/30/11
f 34/34/12 31/31/12 32/32/12
f 32/32/12 33/33/12 34/34/12
f 33/33/13 32/32/13 35/35/13
f 35/35/13 36/36/13 33/33/13
f 36/36/14 35/35/14 37/37/14
f 37/37/14 38/38/14 36/36/14
f 38/38/15 37/37/15 39/39/15
f 39/39/15 40/40/15 38/38/15
f 40/40/16 39/39/16 41/41/16
f 41/41/16 42/42/16 40/40/16
f 42/42/17 41/41/17 43/43/17
f 43/43/17 44/44/17 42/42/17
f 44/44/18 43/43/18 45/45/18
f 45/45/18 46/46/18 44/44/18
f 46/46/19 45/45/19 47/47/19
f 47/47/19 48/48/19 46/46/19
f 48/48/20 47/47/20 49/49/20
f 49/49/20 50/50/20 48/48/20
f 50/50/13 49/49/13 51/51/13
f 51/51/13 52/52/13 50/50/13
f 52/52/14 51/51/14 27/27/14
f 27/27/14 30/30/14 52/52/14
f 28/56/21 4/53/21 3/54/21
f 3/54/21 29/55/21 28/56/21
f 27/60/22 1/57/22 4/58/22
f 4/58/22 28/59/22 27/60/22
f 33/64/23 7/61/23 6/62/23
f 6/62/23 34/63/23 33/64/23
f 34/68/24 6/65/24 5/66/24
f 5/66/24 31/67/24 34/68/24
f 31/72/25 5/69/25 8/70/25
f 8/70/25 32/71/25 31/72/25
f 32/71/26 8/70/26 10/73/26
f 10/73/26 35/74/26 32/71/26
f 35/74/27 10/73/27 12/75/27
f 12/75/27 37/76/27 35/74/27
f 37/76/26 12/75/26 14/77/26
f 14/77/26 39/78/26 37/76/26
f 39/78/28 14/77/28 16/79/28
f 16/79/28 41/80/28 39/78/28
f 41/80/29 16/79/29 18/81/29
f 18/81/29 43/82/29 41/80/29
f 43/82/28 18/81/28 20/83/28
f 20/83/28 45/84/28 43/82/28
f 45/84/26 20/83/26 22/85/26
f 22/85/26 47/86/26 45/84/26
f 47/86/27 22/85/27 24/87/27
f 24/87/27 49/88/27 47/86/27
f 49/88/26 24/87/26 26/89/26
f 26/89/26 51/90/26 49/88/26
f 51/90/27 26/89/27 1/57/27
f 1/57/27 27/60/27 51/90/27
f 29/94/30 3/91/30 2/92/30
f 2/92/30 30/93/30 29/94/30
f 30/93/31 2/92/31 25/95/31
f 25/95/31 52/96/31 30/93/31
f 52/96/32 25/95/32 23/97/32
f 23/97/32 50/98/32 52/96/32
f 50/98/31 23/97/31 21/99/31
f 21/99/31 48/100/31 50/98/31
f 48/100/33 21/99/33 19/101/33
f 19/101/33 46/102/33 48/100/33
f 46/102/34 19/101/34 17/103/34
f 17/103/34 44/104/34 46/102/34
f 44/104/33 17/103/33 15/105/33
f 15/105/33 42/106/33 44/104/33
f 42/106/31 15/105/31 13/107/31
f 13/107/31 40/108/31 42/106/31
f 40/108/32 13/107/32 11/109/32
f 11/109/32 38/110/32 40/108/32
f 38/110/31 11/109/31 9/111/31
f 9/111/31 36/112/31 38/110/31
f 36/112/32 9/111/32 7/61/32
f 7/61/32 33/64/32 36/112/32
f 56/116/35 53/113/35 54/114/35
f 54/114/35 55/115/35 56/116/35
f 60/120/36 57/117/36 58/118/36
f 58/118/36 59/119/36 60/120/36
f 64/124/37 61/121/37 62/122/37
f 62/122/37 63/123/37 64/124/37
f 67/128/38 65/125/38 54/126/38
f 54/126/38 66/127/38 67/128/38
f 69/132/39 60/129/39 59/130/39
f 59/130/39 68/131/39 69/132/39
f 73/136/40 70/133/40 71/134/40
f 71/134/40 72/135/40 73/136/40
f 76/140/41 74/137/41 75/138/41
f 75/138/41 53/139/41 76/140/41
f 78/144/42 57/141/42 60/142/42
f 60/142/42 77/143/42 78/144/42
f 81/148/43 73/145/43 79/146/43
f 79/146/43 80/147/43 81/148/43
f 84/152/35 82/149/35 76/150/35
f 76/150/35 83/151/35 84/152/35
f 87/156/36 85/153/36 86/154/36
f 86/154/36 71/155/36 87/156/36
f 82/158/41 88/157/41 74/137/41
f 74/137/41 76/140/41 82/158/41
f 89/162/39 87/159/39 71/160/39
f 71/160/39 70/161/39 89/162/39
f 73/145/39 72/163/39 77/164/39
f 77/164/39 79/146/39 73/145/39
f 72/168/36 90/165/36 78/166/36
f 78/166/36 77/167/36 72/168/36
f 94/172/35 91/169/35 92/170/35
f 92/170/35 93/171/35 94/172/35
f 77/143/44 60/142/44 69/173/44
f 69/173/44 79/174/44 77/143/44
f 96/178/45 95/175/45 83/176/45
f 83/176/45 94/177/45 96/178/45
f 98/182/46 91/179/46 76/180/46
f 76/180/46 97/181/46 98/182/46
f 92/186/47 53/183/47 56/184/47
f 56/184/47 93/185/47 92/186/47
f 94/177/48 83/176/48 76/180/48
f 76/180/48 91/179/48 94/177/48
f 80/190/49 99/187/49 100/188/49
f 100/188/49 81/189/49 80/190/49
f 98/194/50 97/191/50 101/192/50
f 101/192/50 102/193/50 98/194/50
f 97/198/51 76/195/51 53/196/51
f 53/196/51 101/197/51 97/198/51
f 80/190/52 79/174/52 69/173/52
f 69/173/52 99/187/52 80/190/52
f 102/200/53 92/170/53 91/169/53
f 91/169/53 98/199/53 102/200/53
f 100/202/54 70/133/54 73/136/54
f 73/136/54 81/201/54 100/202/54
f 101/192/55 53/183/55 92/186/55
f 92/186/55 102/193/55 101/192/55
f 99/206/56 69/203/56 70/204/56
f 70/204/56 100/205/56 99/206/56
f 104/210/41 103/207/41 67/208/41
f 67/208/41 66/209/41 104/210/41
f 66/212/35 54/114/35 53/113/35
f 53/113/35 104/211/35 66/212/35
f 106/214/39 69/132/39 68/131/39
f 68/131/39 105/213/39 106/214/39
f 108/218/57 107/215/57 69/216/57
f 69/216/57 106/217/57 108/218/57
f 104/222/58 53/219/58 75/220/58
f 75/220/58 103/221/58 104/222/58
f 103/207/41 108/223/41 109/224/41
f 109/224/41 67/208/41 103/207/41
f 90/226/59 86/225/59 95/175/45
f 95/175/45 96/178/45 90/226/59
f 96/230/36 94/227/36 93/228/36
f 93/228/36 110/229/36 96/230/36
f 111/234/36 84/231/36 83/232/36
f 83/232/36 95/233/36 111/234/36
f 93/185/60 56/184/60 112/235/60
f 112/235/60 110/236/60 93/185/60
f 74/137/41 113/237/41 107/238/41
f 107/238/41 75/138/41 74/137/41
f 109/240/38 114/239/38 65/125/38
f 65/125/38 67/128/38 109/240/38
f 61/121/37 115/241/61 116/242/61
f 116/242/61 62/122/37 61/121/37
f 112/246/36 56/243/36 55/244/36
f 55/244/36 117/245/36 112/246/36
f 115/241/61 118/247/62 119/248/62
f 119/248/62 116/242/61 115/241/61
f 105/250/38 68/249/38 114/239/38
f 114/239/38 109/240/38 105/250/38
f 113/237/41 70/251/41 69/252/41
f 69/252/41 107/238/41 113/237/41
f 120/254/41 89/253/41 70/251/41
f 70/251/41 113/237/41 120/254/41
f 72/135/63 71/134/63 86/225/59
f 86/225/59 90/226/59 72/135/63
f 108/223/41 106/255/41 105/256/41
f 105/256/41 109/224/41 108/223/41
f 103/221/37 75/220/37 107/215/37
f 107/215/37 108/218/37 103/221/37
f 90/165/36 96/230/36 110/229/36
f 110/229/36 78/166/36 90/165/36
f 85/153/36 111/234/36 95/233/36
f 95/233/36 86/154/36 85/153/36
f 110/236/64 112/235/60 57/141/42
f 57/141/42 78/144/42 110/236/64
f 57/117/36 112/246/36 117/245/36
f 117/245/36 58/118/36 57/117/36
f 124/260/41 121/257/41 122/258/41
f 122/258/41 123/259/41 124/260/41
f 122/264/37 113/261/37 74/262/37
f 74/262/37 123/263/37 122/264/37
f 121/268/65 124/265/65 88/266/65
f 88/266/65 120/267/65 121/268/65
f 121/272/66 120/269/66 113/270/66
f 113/270/66 122/271/66 121/272/66
f 123/276/67 74/273/67 88/274/67
f 88/274/67 124/275/67 123/276/67
f 115/278/36 61/277/36 111/234/36
f 111/234/36 85/153/36 115/278/36
f 116/280/41 119/279/41 89/253/41
f 89/253/41 120/254/41 116/280/41
f 61/277/36 64/281/36 84/231/36
f 84/231/36 111/234/36 61/277/36
f 119/283/39 118/282/39 87/159/39
f 87/159/39 89/162/39 119/283/39
f 63/285/41 62/284/41 88/157/41
f 88/157/41 82/158/41 63/285/41
f 118/286/36 115/278/36 85/153/36
f 85/153/36 87/156/36 118/286/36
f 64/288/35 63/287/35 82/149/35
f 82/149/35 84/152/35 64/288/35
f 120/254/41 88/157/41 62/284/41
f 62/284/41 116/280/41 120/254/41
f 128/292/36 125/289/36 126/290/36
f 126/290/36 127/291/36 128/292/36
f 130/296/39 128/293/39 127/294/39
f 127/294/39 129/295/39 130/296/39
f 132/300/41 130/297/41 129/298/41
f 129/298/41 131/299/41 132/300/41
f 125/304/35 132/301/35 131/302/35
f 131/302/35 126/303/35 125/304/35
f 136/308/36 133/305/36 134/306/36
f 134/306/36 135/307/36 136/308/36
f 138/312/39 136/309/39 135/310/39
f 135/310/39 137/311/39 138/312/39
f 140/316/41 138/313/41 137/314/41
f 137/314/41 139/315/41 140/316/41
f 133/320/35 140/317/35 139/318/35
f 139/318/35 134/319/35 133/320/35
f 144/324/36 141/321/36 142/322/36
f 142/322/36 143/323/36 144/324/36
f 146/328/39 144/325/39 143/326/39
f 143/326/39 145/327/39 146/328/39
f 148/332/41 146/329/41 145/330/41
f 145/330/41 147/331/41 148/332/41
f 141/336/35 148/333/35 147/334/35
f 147/334/35 142/335/35 141/336/35
f 152/340/36 149/337/36 150/338/36
f 150/338/36 151/339/36 152/340/36
f 154/344/39 152/341/39 151/342/39
f 151/342/39 153/343/39 154/344/39
f 156/348/41 154/345/41 153/346/41
f 153/346/41 155/347/41 156/348/41
f 149/352/35 156/349/35 155/350/35
f 155/350/35 150/351/35 149/352/35
